<?xml version="1.0"?>
<svg xmlns="http://www.w3.org/2000/svg" height="512px" viewBox="0 0 480 480" width="512px"><path d="m456 264h-8v-16h-96v64c.03125 5.632812 1.570312 11.160156 4.449219 16h-12.449219c-2.773438 0-5.347656 1.4375-6.804688 3.796875-1.457031 2.355469-1.589843 5.300781-.351562 7.78125l10.210938 20.421875h-43.054688v-96c-.015625-13.25-10.75-23.984375-24-24h-256c-13.25.015625-23.984375 10.75-24 24v216h256v-56h112v-48h4.449219c-2.878907 4.839844-4.417969 10.367188-4.449219 16 0 17.671875 14.328125 32 32 32s32-14.328125 32-32c-.03125-5.632812-1.570312-11.160156-4.449219-16h12.449219c3.03125 0 5.800781-1.710938 7.15625-4.421875l16-32c1.238281-2.480469 1.105469-5.425781-.351562-7.78125-1.457032-2.359375-4.03125-3.796875-6.804688-3.796875h-12.449219c2.878907-4.839844 4.417969-10.367188 4.449219-16h8c13.253906 0 24-10.746094 24-24s-10.746094-24-24-24zm-408 200h-32v-200c.003906-4.417969 3.582031-7.996094 8-8h24zm80-208h48v96h-48zm-64 0h16v96h-16zm176 208h-176v-96h32v-112h16v112h80v-112h16v112h32zm0-112h-16v-96h16zm112 56h-96v-152h24c4.417969.003906 7.996094 3.582031 8 8v112h64zm16-144h64v48c-.011719 8.832031-7.167969 15.988281-16 16h-32c-8.832031-.011719-15.988281-7.167969-16-16zm32 144c-8.835938 0-16-7.164062-16-16s7.164062-16 16-16 16 7.164062 16 16c-.011719 8.832031-7.167969 15.988281-16 16zm35.054688-48h-70.109376l-8-16h86.109376zm20.945312-64h-8v-16h8c4.417969 0 8 3.582031 8 8s-3.582031 8-8 8zm0 0" fill="#7989a0"/><path d="m232 224v-64.808594c18.625-3.800781 32-20.183594 32-39.191406s-13.375-35.390625-32-39.191406v-80.808594h-160v80.808594c-18.625 3.800781-32 20.183594-32 39.191406s13.375 35.390625 32 39.191406v64.808594zm0-126.632812c9.589844 3.394531 16 12.460937 16 22.632812s-6.410156 19.238281-16 22.632812zm-144-81.367188h128v32h-128zm0 48h128v144h-128zm-32 56c.011719-10.167969 6.417969-19.230469 16-22.632812v45.265624c-9.582031-3.402343-15.988281-12.464843-16-22.632812zm0 0" fill="#7989a0"/><path d="m104 176h96v16h-96zm0 0" fill="#7989a0"/><path d="m104 96h16v16h-16zm0 0" fill="#7989a0"/><path d="m184 96h16v16h-16zm0 0" fill="#7989a0"/><path d="m144 128h16v32h-16zm0 0" fill="#7989a0"/><path d="m395.199219 213.601562c-6.632813 3.8125-10.859375 10.753907-11.199219 18.398438h16c0-1.679688.761719-2.570312 4.800781-5.601562 6.878907-3.558594 11.199219-10.652344 11.199219-18.398438s-4.320312-14.839844-11.199219-18.398438c-4.039062-3.03125-4.800781-3.921874-4.800781-5.601562h-16c.339844 7.644531 4.566406 14.585938 11.199219 18.398438 4.039062 3.03125 4.800781 3.921874 4.800781 5.601562s-.761719 2.570312-4.800781 5.601562zm0 0" fill="#7989a0"/></svg>
