<?xml version="1.0"?>
<svg xmlns="http://www.w3.org/2000/svg" height="512px" viewBox="-40 0 480 480" width="512px"><path d="m8 480h368c4.417969 0 8-3.582031 8-8v-32c0-4.417969-3.582031-8-8-8h-8v-64h-16.199219c-.773437-16.257812-3.460937-32.371094-8.003906-48h56.203125v-128h-176v-16h44.640625l64.003906-112h43.355469c4.417969 0 8-3.582031 8-8v-48c0-4.417969-3.582031-8-8-8h-368c-4.417969 0-8 3.582031-8 8v48c.0273438.546875.0859375 1.09375.171875 1.632812l39.660156 190.367188-39.660156 190.367188c-.0859375.539062-.1445312 1.085937-.171875 1.632812v32c0 4.417969 3.582031 8 8 8zm344-96v48h-208v-48zm32-176v96h-45.375c-1.980469-5.480469-4.109375-10.8125-6.382812-16h35.757812v-64h-73.339844c-4.65625-6.238281-8.976562-11.605469-12.683594-16zm-59.332031 64c-5.640625-11.011719-11.898438-21.695312-18.75-32h46.082031v32zm-64.097657-64c12.3125 13.253906 71.414063 80.8125 75.234376 160h-191.804688v-160zm-116.570312-16v-16h16v16zm32 0v-16h32v16zm83.359375-32h-115.359375v-96h170.210938zm-243.359375-144h352v32h-352zm1.835938 48h110.164062v176h-73.492188zm36.671874 192h73.492188v176h-110.164062zm-38.507812 192h352v16h-352zm0 0" fill="#FFFFFF"/><path d="m300.734375 345.644531 15.65625-3.289062c-1.15625-5.492188-2.601563-11.105469-4.296875-16.6875l-15.3125 4.664062c1.570312 5.128907 2.898438 10.28125 3.953125 15.3125zm0 0" fill="#FFFFFF"/><path d="m306.273438 309.058594c-12.351563-29.902344-29.359376-57.660156-50.390626-82.246094l-12.1875 10.375c19.90625 23.238281 36.003907 49.480469 47.703126 77.753906zm0 0" fill="#FFFFFF"/><path d="m160 336h48v16h-48zm0 0" fill="#FFFFFF"/><path d="m160 304h32v16h-32zm0 0" fill="#FFFFFF"/><path d="m160 272h48v16h-48zm0 0" fill="#FFFFFF"/><path d="m160 240h32v16h-32zm0 0" fill="#FFFFFF"/></svg>
